<svg width="178" height="50" viewBox="0 0 178 50" fill="none" xmlns="http://www.w3.org/2000/svg">
<path fill-rule="evenodd" clip-rule="evenodd" d="M32.6321 11.4635L35.9375 8.2364C35.6546 8.02876 35.4328 7.74518 35.3056 7.41642L22.2052 12.9295C22.223 12.9785 22.2388 13.0275 22.2526 13.0775H29.5603C29.6727 12.0422 30.5718 11.2357 31.665 11.2357C32.014 11.2357 32.3423 11.3174 32.6321 11.4635M13.7145 20.889L7.40438 19.0327C7.16975 19.6076 6.79318 20.1113 6.31605 20.5045L13.056 30.2059C13.5588 29.881 14.1631 29.6907 14.8127 29.6907C14.9478 29.6907 15.0818 29.6993 15.2119 29.7147L15.2011 23.2567C14.3001 23.1548 13.6002 22.4098 13.6002 21.5052C13.6002 21.2879 13.6406 21.0803 13.7145 20.889ZM7.5138 18.729L13.8604 20.5958C14.1778 20.0834 14.7535 19.7412 15.413 19.7412C15.7453 19.7412 16.0578 19.8287 16.3249 19.9815L19.0073 15.0261C18.7273 14.7828 18.5183 14.4647 18.4148 14.1032L7.50493 16.543C7.61632 16.8929 7.67646 17.2659 7.67646 17.6514C7.67646 18.0368 7.61928 18.3877 7.5138 18.729ZM17.1145 22.1079L21.6118 24.217C22.0061 23.4662 22.6538 22.8626 23.4444 22.5117L21.0647 15.3788C20.8369 15.4673 20.5885 15.5154 20.3293 15.5154C19.9428 15.5154 19.583 15.4077 19.2774 15.2231L16.598 20.1728C16.9805 20.4958 17.222 20.9736 17.222 21.5052C17.222 21.7167 17.1836 21.9205 17.1136 22.1079H17.1145ZM38.9757 22.7885C38.5686 22.4617 38.0461 22.2656 37.4773 22.2656C37.1905 22.2656 36.9154 22.3156 36.6611 22.4069L32.5897 15.1501C33.0767 14.9193 33.4592 14.5118 33.6485 14.0138L42.4142 16.3007C42.3531 16.5651 42.3206 16.841 42.3206 17.1236C42.3206 17.9397 42.5897 18.6944 43.0451 19.3096L38.9748 22.7885H38.9757ZM22.0071 28.2189L17.4468 31.0509C17.7918 31.546 17.9939 32.1439 17.9939 32.788C17.9939 33.3196 17.8559 33.8194 17.6144 34.2568L24.2035 38.4087C24.4815 37.8338 25.0286 37.407 25.6871 37.2811L25.211 29.6512C25.1518 29.6541 25.0927 29.6551 25.0325 29.6551C23.8042 29.6551 22.711 29.0927 22.0081 28.2189H22.0071ZM17.2427 30.7904L21.8119 27.9536C21.4205 27.3672 21.1928 26.6683 21.1928 25.9166C21.1928 25.4186 21.2934 24.9438 21.4748 24.5093L16.9746 22.3982C16.6788 22.8875 16.1475 23.2259 15.5323 23.2653L15.5432 29.7724C16.2185 29.9271 16.8109 30.2905 17.2447 30.7904H17.2427ZM34.4292 36.0554L28.125 38.847C28.1556 38.9845 28.1713 39.1268 28.1713 39.2729C28.1713 39.4084 28.1575 39.5411 28.1309 39.6699L35.5915 42.3183C35.9207 41.3089 36.6778 40.4851 37.6558 40.0496L36.7478 36.9523C36.5457 37.0254 36.3269 37.0657 36.0982 37.0657C35.3667 37.0657 34.7338 36.6543 34.4292 36.0564V36.0554ZM40.763 27.1413L37.2319 33.8156C37.5562 34.0588 37.7967 34.4039 37.9012 34.8019L45.0266 32.7582C45.0246 32.7216 45.0227 32.6841 45.0227 32.6476C45.0227 32.2323 45.1666 31.8497 45.4081 31.544L40.763 27.1423V27.1413ZM40.6703 26.6049L39.5919 25.583C39.7486 25.2754 39.8364 24.9293 39.8364 24.5631C39.8364 23.9661 39.6027 23.422 39.2192 23.0135L43.2532 19.5653C43.4819 19.8229 43.7461 20.0498 44.0379 20.2392L40.6703 26.6049ZM16.7449 35.2479L20.9543 40.834L24.0921 39.8506C24.0359 39.667 24.0053 39.4728 24.0053 39.2719C24.0053 39.071 24.0329 38.8932 24.0842 38.7163L17.4418 34.5308C17.2496 34.8048 17.014 35.047 16.7449 35.2479ZM20.6181 40.9398L16.4688 35.4325C15.9868 35.7199 15.42 35.8853 14.8127 35.8853C14.5603 35.8853 14.3159 35.8564 14.0802 35.8026L12.8342 40.2419C13.9225 40.6668 14.7644 41.5627 15.0937 42.6711L20.6171 40.9398H20.6181ZM21.1603 41.107L24.2114 40.1505C24.5357 40.8052 25.21 41.2647 25.9976 41.2983L25.9464 46.3221C25.7029 46.3615 25.4752 46.4451 25.2721 46.5653L21.1603 41.107V41.107ZM32.0357 31.769L27.3482 37.654C27.6508 37.878 27.8884 38.1799 28.0294 38.5298L34.3099 35.7488C34.2636 35.5901 34.239 35.4238 34.239 35.2508C34.239 34.823 34.3908 34.4299 34.6461 34.1203L32.0367 31.769H32.0357ZM36.2244 26.5097L32.2388 31.5142L34.8738 33.8886C35.2011 33.6089 35.6299 33.4397 36.1002 33.4397C36.4067 33.4397 36.6956 33.5118 36.9499 33.6397L40.5136 26.9029L39.4203 25.8676C38.9945 26.4674 38.2837 26.8616 37.4773 26.8616C37.017 26.8616 36.5871 26.7327 36.2234 26.5107L36.2244 26.5097ZM31.9913 31.2922L35.9533 26.3175C35.5994 26.0252 35.3342 25.633 35.205 25.185L28.8279 25.3581C28.8565 25.5398 28.8703 25.7272 28.8703 25.9166C28.8703 26.6597 28.6475 27.3518 28.264 27.9334L31.9913 31.2922V31.2922ZM27.0643 37.4791L31.7892 31.5469L28.0737 28.1987C27.4694 28.961 26.5694 29.4897 25.5402 29.6224L26.0164 37.2445C26.041 37.2445 26.0657 37.2436 26.0903 37.2436C26.4422 37.2436 26.7744 37.3291 27.0653 37.4791H27.0643ZM28.2955 19.1914L21.6443 15.0337C21.5576 15.1078 21.4639 15.1751 21.3644 15.2337L23.752 22.3915C24.1522 22.2531 24.583 22.1781 25.0325 22.1781C25.5599 22.1781 26.0627 22.2819 26.5201 22.4694L28.2946 19.1904L28.2955 19.1914ZM35.3391 23.5941L28.5785 19.3682L26.8237 22.6097C27.7829 23.1038 28.5016 23.9815 28.7638 25.0332L35.139 24.8611C35.1262 24.764 35.1193 24.664 35.1193 24.5641C35.1193 24.218 35.1981 23.8892 35.3391 23.5941V23.5941ZM28.7352 19.0789L35.5018 23.3086C35.7167 22.9875 36.0134 22.7222 36.3614 22.5396L32.2821 15.2693C32.0869 15.3269 31.8799 15.3577 31.666 15.3577C31.3722 15.3577 31.0923 15.2991 30.8379 15.1933L28.7352 19.0779V19.0789ZM21.8809 14.7944L28.4523 18.902L30.5412 15.0424C29.9734 14.6944 29.5869 14.0917 29.5524 13.3986H22.3117C22.3176 13.4582 22.3206 13.5178 22.3206 13.5783C22.3206 14.0388 22.156 14.4618 21.8809 14.7934V14.7944ZM21.807 0C19.6875 0 17.9683 1.67362 17.9683 3.73849C17.9683 5.50343 19.2252 6.98383 20.9158 7.37508L20.6319 11.6634C20.5343 11.649 20.4338 11.6413 20.3322 11.6413C19.5623 11.6413 18.8939 12.0672 18.5637 12.6911L11.459 9.86292C11.4826 9.74756 11.4945 9.62836 11.4945 9.50628C11.4945 8.49115 10.6496 7.66924 9.60765 7.66924C8.56565 7.66924 7.72082 8.49211 7.72082 9.50628C7.72082 10.5204 8.56565 11.3433 9.60765 11.3433C10.4081 11.3433 11.0923 10.8579 11.3663 10.1725L18.4365 12.9871C18.3754 13.1736 18.3419 13.3726 18.3419 13.5793C18.3419 13.6485 18.3458 13.7158 18.3527 13.7831L7.39156 16.2344C6.81782 14.8732 5.44361 13.9138 3.83872 13.9138C1.71924 13.9138 0 15.5874 0 17.6523C0 19.7172 1.71924 21.3908 3.83872 21.3908C4.66482 21.3908 5.43079 21.1361 6.05777 20.7035L12.7928 30.3982C12.3275 30.7712 11.9736 31.2701 11.7853 31.842L4.59976 30.9653C4.60863 30.8942 4.61356 30.8221 4.61356 30.749C4.61356 29.7752 3.80225 28.9851 2.80264 28.9851C1.80304 28.9851 0.991719 29.7752 0.991719 30.749C0.991719 31.7228 1.80304 32.513 2.80264 32.513C3.61297 32.513 4.29811 31.9949 4.52977 31.2806L11.7005 32.1554C11.6571 32.3602 11.6335 32.5726 11.6335 32.7899C11.6335 34.1405 12.5217 35.2893 13.7608 35.7132L12.5187 40.1361C12.1668 40.0323 11.7942 39.9765 11.4077 39.9765C9.28825 39.9765 7.56901 41.6502 7.56901 43.715C7.56901 45.7799 9.28825 47.4535 11.4077 47.4535C13.5272 47.4535 15.2464 45.7799 15.2464 43.715C15.2464 43.4661 15.2208 43.2219 15.1735 42.9864L20.8241 41.2147L25.003 46.7604C24.6076 47.0998 24.3573 47.5968 24.3573 48.1495C24.3573 49.1714 25.208 50 26.2579 50C27.3078 50 28.1585 49.1714 28.1585 48.1495C28.1585 47.1276 27.3206 46.3115 26.2815 46.299L26.3318 41.2887C27.1185 41.1993 27.7711 40.6841 28.0402 39.9852L35.5047 42.6355C35.4446 42.8979 35.4131 43.1709 35.4131 43.4516C35.4131 45.5155 37.1323 47.1901 39.2518 47.1901C41.3713 47.1901 43.0905 45.5165 43.0905 43.4516C43.0905 41.3868 41.3713 39.7131 39.2518 39.7131C38.8022 39.7131 38.3705 39.7891 37.9692 39.9275L37.0554 36.8091C37.5976 36.4918 37.9604 35.9141 37.9604 35.2537C37.9604 35.2114 37.9584 35.1691 37.9554 35.1278L45.0789 33.084C45.28 33.8742 46.0124 34.4597 46.8858 34.4597C47.914 34.4597 48.747 33.6483 48.747 32.6476C48.747 31.6469 47.914 30.8356 46.8858 30.8356C46.4038 30.8356 45.9641 31.0144 45.6329 31.3076L40.9227 26.8443L44.3267 20.4103C44.8718 20.6996 45.4968 20.864 46.1613 20.864C48.2808 20.864 50 19.1904 50 17.1255C50 15.0607 48.2808 13.387 46.1613 13.387C44.447 13.387 42.9949 14.482 42.502 15.9922L33.7401 13.7062C33.7677 13.5745 33.7815 13.437 33.7815 13.2976C33.7815 12.619 33.4444 12.0162 32.9239 11.6413L36.2293 8.41424C36.4826 8.53729 36.7685 8.60746 37.0712 8.60746C38.1132 8.60746 38.958 7.78459 38.958 6.77042C38.958 5.75625 38.1132 4.93338 37.0712 4.93338C36.0292 4.93338 35.1843 5.75625 35.1843 6.77042C35.1843 6.88386 35.1952 6.9944 35.2149 7.10207L22.0662 12.6353C21.8267 12.2181 21.4324 11.8961 20.9602 11.7423L21.2451 7.43756C21.4274 7.46352 21.6147 7.47698 21.805 7.47698C23.9245 7.47698 25.6437 5.80336 25.6437 3.73849C25.6437 1.67362 23.9245 0 21.805 0H21.807Z" fill="#151E28"/>
<path d="M64.952 30.12C64.056 30.12 63.256 29.896 62.552 29.448C61.848 29 61.288 28.336 60.872 27.456C60.472 26.56 60.272 25.472 60.272 24.192C60.272 20.256 61.784 18.288 64.808 18.288C65.896 18.288 66.928 18.52 67.904 18.984V22.008L66.704 22.128V19.776C66.224 19.584 65.584 19.488 64.784 19.488C63.68 19.488 62.896 19.896 62.432 20.712C61.984 21.528 61.76 22.696 61.76 24.216C61.76 25.704 62.056 26.856 62.648 27.672C63.256 28.488 64.072 28.896 65.096 28.896C66.024 28.896 66.92 28.6 67.784 28.008L68.36 29.064C67.832 29.448 67.288 29.72 66.728 29.88C66.184 30.04 65.592 30.12 64.952 30.12ZM74.885 30.12C73.365 30.12 72.237 29.608 71.501 28.584C70.765 27.544 70.397 26.08 70.397 24.192C70.397 22.224 70.757 20.752 71.477 19.776C72.197 18.784 73.333 18.288 74.885 18.288C76.437 18.288 77.573 18.784 78.293 19.776C79.029 20.752 79.397 22.224 79.397 24.192C79.397 26.08 79.029 27.544 78.293 28.584C77.557 29.608 76.421 30.12 74.885 30.12ZM74.885 28.872C75.989 28.872 76.765 28.472 77.213 27.672C77.661 26.872 77.885 25.712 77.885 24.192C77.885 22.704 77.653 21.552 77.189 20.736C76.741 19.92 75.973 19.512 74.885 19.512C73.797 19.512 73.021 19.92 72.557 20.736C72.109 21.552 71.885 22.704 71.885 24.192C71.885 25.712 72.109 26.872 72.557 27.672C73.005 28.472 73.781 28.872 74.885 28.872ZM82.2883 18.456H83.5363L83.6323 19.2C84.4003 18.848 85.0403 18.608 85.5523 18.48C86.0643 18.352 86.6163 18.288 87.2083 18.288C88.4083 18.288 89.2883 18.608 89.8483 19.248C90.4083 19.888 90.6883 20.88 90.6883 22.224V30H89.2003V22.176C89.2003 21.232 89.0483 20.552 88.7443 20.136C88.4403 19.72 87.9043 19.512 87.1363 19.512C86.5763 19.512 86.0323 19.568 85.5043 19.68C84.9923 19.792 84.4243 20.024 83.8003 20.376V30H82.2883V18.456ZM96.8189 30L92.9789 18.456H94.4909L97.6349 28.392L100.611 18.456H102.147L98.4269 30H96.8189ZM109.138 30.12C105.826 30.12 104.17 28.144 104.17 24.192C104.17 22.224 104.594 20.752 105.442 19.776C106.29 18.784 107.426 18.288 108.85 18.288C110.13 18.288 111.138 18.712 111.874 19.56C112.626 20.392 113.002 21.512 113.002 22.92L112.954 24L112.906 24.504H105.658C105.674 26.152 105.994 27.296 106.618 27.936C107.242 28.56 108.05 28.872 109.042 28.872C109.65 28.872 110.218 28.8 110.746 28.656C111.274 28.512 111.802 28.272 112.33 27.936L112.786 29.112C112.242 29.448 111.642 29.704 110.986 29.88C110.346 30.04 109.73 30.12 109.138 30.12ZM111.61 23.448V22.872C111.61 21.848 111.362 21.032 110.866 20.424C110.37 19.816 109.698 19.512 108.85 19.512C107.874 19.512 107.122 19.856 106.594 20.544C106.066 21.232 105.754 22.2 105.658 23.448H111.61ZM115.899 18.456H117.339L117.387 19.464C117.835 19.16 118.411 18.896 119.115 18.672C119.835 18.448 120.499 18.32 121.107 18.288V19.536C120.419 19.536 119.723 19.64 119.019 19.848C118.331 20.056 117.795 20.296 117.411 20.568V30H115.899V18.456ZM126.972 30.12C126.348 30.12 125.692 30.04 125.004 29.88C124.332 29.704 123.7 29.472 123.108 29.184L123.588 28.032C123.988 28.256 124.492 28.456 125.1 28.632C125.724 28.792 126.324 28.872 126.9 28.872C127.62 28.872 128.196 28.72 128.628 28.416C129.076 28.096 129.3 27.592 129.3 26.904C129.3 26.36 129.172 25.952 128.916 25.68C128.676 25.408 128.292 25.184 127.764 25.008L126.012 24.48C125.372 24.272 124.86 24.056 124.476 23.832C124.092 23.608 123.796 23.304 123.588 22.92C123.38 22.52 123.276 22.008 123.276 21.384C123.276 20.344 123.636 19.568 124.356 19.056C125.076 18.544 125.98 18.288 127.068 18.288C128.204 18.288 129.244 18.512 130.188 18.96L129.756 20.088C129.388 19.912 128.972 19.776 128.508 19.68C128.06 19.568 127.62 19.512 127.188 19.512C126.468 19.512 125.876 19.672 125.412 19.992C124.948 20.296 124.716 20.784 124.716 21.456C124.716 21.808 124.78 22.08 124.908 22.272C125.036 22.464 125.212 22.616 125.436 22.728C125.66 22.84 125.996 22.968 126.444 23.112L128.172 23.664C129.116 23.968 129.78 24.344 130.164 24.792C130.564 25.24 130.764 25.92 130.764 26.832C130.764 27.968 130.404 28.8 129.684 29.328C128.98 29.856 128.076 30.12 126.972 30.12ZM137.896 30.12C134.584 30.12 132.928 28.144 132.928 24.192C132.928 22.224 133.352 20.752 134.2 19.776C135.048 18.784 136.184 18.288 137.608 18.288C138.888 18.288 139.896 18.712 140.632 19.56C141.384 20.392 141.76 21.512 141.76 22.92L141.712 24L141.664 24.504H134.416C134.432 26.152 134.752 27.296 135.376 27.936C136 28.56 136.808 28.872 137.8 28.872C138.408 28.872 138.976 28.8 139.504 28.656C140.032 28.512 140.56 28.272 141.088 27.936L141.544 29.112C141 29.448 140.4 29.704 139.744 29.88C139.104 30.04 138.488 30.12 137.896 30.12ZM140.368 23.448V22.872C140.368 21.848 140.12 21.032 139.624 20.424C139.128 19.816 138.456 19.512 137.608 19.512C136.632 19.512 135.88 19.856 135.352 20.544C134.824 21.232 134.512 22.2 134.416 23.448H140.368ZM155.844 30.12C154.724 30.12 153.82 29.84 153.132 29.28C152.46 28.72 152.124 27.912 152.124 26.856C152.124 25.832 152.572 24.992 153.468 24.336C154.364 23.68 155.828 23.352 157.86 23.352H158.868V22.992C158.868 21.712 158.644 20.816 158.196 20.304C157.764 19.776 157.148 19.512 156.348 19.512C155.916 19.512 155.484 19.56 155.052 19.656C154.62 19.736 153.964 19.888 153.084 20.112L152.796 18.96C154.14 18.512 155.34 18.288 156.396 18.288C157.612 18.288 158.572 18.648 159.276 19.368C159.996 20.072 160.356 21.208 160.356 22.776V30H159.276L159.036 29.232C158.748 29.456 158.292 29.664 157.668 29.856C157.044 30.032 156.436 30.12 155.844 30.12ZM156.06 28.92C156.556 28.92 157.068 28.848 157.596 28.704C158.124 28.544 158.548 28.36 158.868 28.152V24.456H158.22C156.892 24.456 155.78 24.608 154.884 24.912C153.988 25.216 153.54 25.824 153.54 26.736C153.54 27.456 153.756 28 154.188 28.368C154.62 28.736 155.244 28.92 156.06 28.92ZM166.4 16.224C166.096 16.224 165.84 16.136 165.632 15.96C165.424 15.768 165.32 15.512 165.32 15.192C165.32 14.872 165.424 14.616 165.632 14.424C165.84 14.216 166.096 14.112 166.4 14.112C166.704 14.112 166.952 14.208 167.144 14.4C167.352 14.576 167.456 14.832 167.456 15.168C167.456 15.504 167.352 15.768 167.144 15.96C166.952 16.136 166.704 16.224 166.4 16.224ZM163.4 30V28.944H165.632V19.512H163.4V18.456H167.144V28.944H169.4V30H163.4Z" fill="black"/>
<path d="M62.552 29.448L63.0889 28.6043L63.0889 28.6043L62.552 29.448ZM60.872 27.456L59.9589 27.8637L59.9633 27.8736L59.9679 27.8834L60.872 27.456ZM67.904 18.984H68.904V18.3522L68.3334 18.0809L67.904 18.984ZM67.904 22.008L68.0035 23.003L68.904 22.913V22.008H67.904ZM66.704 22.128H65.704V23.233L66.8035 23.123L66.704 22.128ZM66.704 19.776H67.704V19.099L67.0754 18.8475L66.704 19.776ZM62.432 20.712L61.5627 20.2177L61.559 20.2242L61.5554 20.2307L62.432 20.712ZM62.648 27.672L61.8385 28.2593L61.8461 28.2695L62.648 27.672ZM67.784 28.008L68.6619 27.5291L68.1319 26.5574L67.2188 27.1831L67.784 28.008ZM68.36 29.064L68.9482 29.8727L69.6585 29.3562L69.2379 28.5851L68.36 29.064ZM66.728 29.88L66.4533 28.9184L66.4458 28.9206L66.728 29.88ZM64.952 29.12C64.2315 29.12 63.6205 28.9426 63.0889 28.6043L62.0151 30.2917C62.8915 30.8494 63.8805 31.12 64.952 31.12V29.12ZM63.0889 28.6043C62.5691 28.2736 62.1251 27.7669 61.7761 27.0286L59.9679 27.8834C60.4509 28.9051 61.1269 29.7264 62.0151 30.2917L63.0889 28.6043ZM61.7851 27.0483C61.457 26.3133 61.272 25.3724 61.272 24.192H59.272C59.272 25.5716 59.487 26.8067 59.9589 27.8637L61.7851 27.0483ZM61.272 24.192C61.272 22.324 61.6356 21.1065 62.199 20.3732C62.724 19.6899 63.5311 19.288 64.808 19.288V17.288C63.0609 17.288 61.6 17.8701 60.613 19.1548C59.6644 20.3895 59.272 22.124 59.272 24.192H61.272ZM64.808 19.288C65.7485 19.288 66.6337 19.4874 67.4746 19.8871L68.3334 18.0809C67.2223 17.5526 66.0435 17.288 64.808 17.288V19.288ZM66.904 18.984V22.008H68.904V18.984H66.904ZM67.8045 21.013L66.6045 21.133L66.8035 23.123L68.0035 23.003L67.8045 21.013ZM67.704 22.128V19.776H65.704V22.128H67.704ZM67.0754 18.8475C66.4307 18.5897 65.649 18.488 64.784 18.488V20.488C65.519 20.488 66.0173 20.5783 66.3326 20.7045L67.0754 18.8475ZM64.784 18.488C63.3959 18.488 62.2389 19.0286 61.5627 20.2177L63.3013 21.2063C63.5531 20.7634 63.9641 20.488 64.784 20.488V18.488ZM61.5554 20.2307C60.9906 21.2595 60.76 22.6226 60.76 24.216H62.76C62.76 22.7694 62.9774 21.7965 63.3086 21.1933L61.5554 20.2307ZM60.76 24.216C60.76 25.8193 61.0764 27.2086 61.8386 28.2592L63.4574 27.0848C63.0356 26.5034 62.76 25.5887 62.76 24.216H60.76ZM61.8461 28.2695C62.6442 29.3406 63.7585 29.896 65.096 29.896V27.896C64.3855 27.896 63.8678 27.6354 63.4499 27.0745L61.8461 28.2695ZM65.096 29.896C66.2511 29.896 67.341 29.5238 68.3492 28.8329L67.2188 27.1831C66.499 27.6762 65.7969 27.896 65.096 27.896V29.896ZM66.9061 28.4869L67.4821 29.5429L69.2379 28.5851L68.6619 27.5291L66.9061 28.4869ZM67.7718 28.2553C67.3272 28.5786 66.8879 28.7943 66.4533 28.9185L67.0027 30.8415C67.6881 30.6457 68.3368 30.3174 68.9482 29.8727L67.7718 28.2553ZM66.4458 28.9206C66.0044 29.0505 65.5086 29.12 64.952 29.12V31.12C65.6754 31.12 66.3636 31.0295 67.0102 30.8394L66.4458 28.9206ZM71.501 28.584L70.6847 29.1617L70.689 29.1676L71.501 28.584ZM71.477 19.776L72.2817 20.3697L72.2863 20.3634L71.477 19.776ZM78.293 19.776L77.4837 20.3634L77.4891 20.3708L77.4946 20.3781L78.293 19.776ZM78.293 28.584L79.105 29.1677L79.1093 29.1617L78.293 28.584ZM77.213 27.672L76.3405 27.1834L76.3405 27.1834L77.213 27.672ZM77.189 20.736L76.3124 21.2173L76.316 21.2238L76.3197 21.2303L77.189 20.736ZM72.557 20.736L71.6877 20.2417L71.684 20.2482L71.6804 20.2547L72.557 20.736ZM72.557 27.672L73.4295 27.1834L73.4295 27.1834L72.557 27.672ZM74.885 29.12C73.6121 29.12 72.8214 28.7076 72.313 28.0004L70.689 29.1676C71.6526 30.5084 73.1179 31.12 74.885 31.12V29.12ZM72.3173 28.0063C71.7458 27.1988 71.397 25.9677 71.397 24.192H69.397C69.397 26.1923 69.7842 27.8892 70.6847 29.1617L72.3173 28.0063ZM71.397 24.192C71.397 22.3154 71.7458 21.0962 72.2817 20.3696L70.6723 19.1824C69.7682 20.4078 69.397 22.1326 69.397 24.192H71.397ZM72.2863 20.3634C72.7687 19.6987 73.5586 19.288 74.885 19.288V17.288C73.1074 17.288 71.6253 17.8693 70.6677 19.1886L72.2863 20.3634ZM74.885 19.288C76.2114 19.288 77.0013 19.6987 77.4837 20.3634L79.1023 19.1886C78.1447 17.8693 76.6626 17.288 74.885 17.288V19.288ZM77.4946 20.3781C78.0414 21.1033 78.397 22.3188 78.397 24.192H80.397C80.397 22.1292 80.0166 20.4007 79.0914 19.1739L77.4946 20.3781ZM78.397 24.192C78.397 25.9677 78.0482 27.1988 77.4767 28.0063L79.1093 29.1617C80.0098 27.8892 80.397 26.1923 80.397 24.192H78.397ZM77.481 28.0004C76.9747 28.7047 76.1782 29.12 74.885 29.12V31.12C76.6638 31.12 78.1393 30.5113 79.105 29.1676L77.481 28.0004ZM74.885 29.872C76.2633 29.872 77.4216 29.3461 78.0855 28.1606L76.3405 27.1834C76.1084 27.5979 75.7147 27.872 74.885 27.872V29.872ZM78.0855 28.1606C78.6551 27.1434 78.885 25.7833 78.885 24.192H76.885C76.885 25.6407 76.6669 26.6006 76.3405 27.1834L78.0855 28.1606ZM78.885 24.192C78.885 22.6224 78.6441 21.2719 78.0583 20.2417L76.3197 21.2303C76.6619 21.8321 76.885 22.7856 76.885 24.192H78.885ZM78.0656 20.2547C77.409 19.0588 76.2639 18.512 74.885 18.512V20.512C75.6821 20.512 76.073 20.7812 76.3124 21.2173L78.0656 20.2547ZM74.885 18.512C73.5059 18.512 72.3609 19.0578 71.6877 20.2417L73.4263 21.2303C73.6811 20.7822 74.0881 20.512 74.885 20.512V18.512ZM71.6804 20.2547C71.1169 21.2812 70.885 22.6263 70.885 24.192H72.885C72.885 22.7817 73.1011 21.8228 73.4336 21.2173L71.6804 20.2547ZM70.885 24.192C70.885 25.7833 71.1149 27.1434 71.6845 28.1606L73.4295 27.1834C73.1031 26.6006 72.885 25.6407 72.885 24.192H70.885ZM71.6845 28.1606C72.3484 29.3461 73.5067 29.872 74.885 29.872V27.872C74.0553 27.872 73.6616 27.5979 73.4295 27.1834L71.6845 28.1606ZM82.2883 18.456V17.456H81.2883V18.456H82.2883ZM83.5363 18.456L84.528 18.328L84.4155 17.456H83.5363V18.456ZM83.6323 19.2L82.6405 19.328L82.8143 20.6749L84.0489 20.1091L83.6323 19.2ZM85.5523 18.48L85.7948 19.4501L85.7948 19.4501L85.5523 18.48ZM89.8483 19.248L89.0957 19.9065L89.0957 19.9065L89.8483 19.248ZM90.6883 30V31H91.6883V30H90.6883ZM89.2003 30H88.2003V31H89.2003V30ZM85.5043 19.68L85.2967 18.7017L85.2906 18.7031L85.5043 19.68ZM83.8003 20.376L83.3089 19.505L82.8003 19.792V20.376H83.8003ZM83.8003 30V31H84.8003V30H83.8003ZM82.2883 30H81.2883V31H82.2883V30ZM82.2883 19.456H83.5363V17.456H82.2883V19.456ZM82.5445 18.584L82.6405 19.328L84.624 19.072L84.528 18.328L82.5445 18.584ZM84.0489 20.1091C84.7899 19.7694 85.3672 19.557 85.7948 19.4501L85.3097 17.5099C84.7133 17.659 84.0106 17.9266 83.2156 18.2909L84.0489 20.1091ZM85.7948 19.4501C86.2185 19.3442 86.6883 19.288 87.2083 19.288V17.288C86.5442 17.288 85.91 17.3598 85.3097 17.5099L85.7948 19.4501ZM87.2083 19.288C88.2424 19.288 88.7936 19.5613 89.0957 19.9065L90.6008 18.5895C89.7829 17.6547 88.5741 17.288 87.2083 17.288V19.288ZM89.0957 19.9065C89.426 20.2841 89.6883 20.9888 89.6883 22.224H91.6883C91.6883 20.7712 91.3905 19.4919 90.6008 18.5895L89.0957 19.9065ZM89.6883 22.224V30H91.6883V22.224H89.6883ZM90.6883 29H89.2003V31H90.6883V29ZM90.2003 30V22.176H88.2003V30H90.2003ZM90.2003 22.176C90.2003 21.1734 90.0482 20.2255 89.5516 19.546L87.9369 20.726C88.0483 20.8785 88.2003 21.2906 88.2003 22.176H90.2003ZM89.5516 19.546C88.9802 18.764 88.0599 18.512 87.1363 18.512V20.512C87.7486 20.512 87.9003 20.676 87.9369 20.726L89.5516 19.546ZM87.1363 18.512C86.5091 18.512 85.8955 18.5748 85.2967 18.7018L85.7118 20.6582C86.169 20.5612 86.6434 20.512 87.1363 20.512V18.512ZM85.2906 18.7031C84.653 18.8426 83.9902 19.1207 83.3089 19.505L84.2916 21.247C84.8583 20.9273 85.3315 20.7414 85.7179 20.6569L85.2906 18.7031ZM82.8003 20.376V30H84.8003V20.376H82.8003ZM83.8003 29H82.2883V31H83.8003V29ZM83.2883 30V18.456H81.2883V30H83.2883ZM96.8189 30L95.8701 30.3156L96.0977 31H96.8189V30ZM92.9789 18.456V17.456H91.5924L92.0301 18.7716L92.9789 18.456ZM94.4909 18.456L95.4443 18.1543L95.2234 17.456H94.4909V18.456ZM97.6349 28.392L96.6815 28.6937L97.6612 31.7897L98.5929 28.6789L97.6349 28.392ZM100.611 18.456V17.456H99.8666L99.653 18.1691L100.611 18.456ZM102.147 18.456L103.099 18.7627L103.52 17.456H102.147V18.456ZM98.4269 30V31H99.1553L99.3787 30.3067L98.4269 30ZM97.7678 29.6844L93.9278 18.1404L92.0301 18.7716L95.8701 30.3156L97.7678 29.6844ZM92.9789 19.456H94.4909V17.456H92.9789V19.456ZM93.5375 18.7577L96.6815 28.6937L98.5883 28.0903L95.4443 18.1543L93.5375 18.7577ZM98.5929 28.6789L101.569 18.7429L99.653 18.1691L96.677 28.1051L98.5929 28.6789ZM100.611 19.456H102.147V17.456H100.611V19.456ZM101.195 18.1493L97.4751 29.6933L99.3787 30.3067L103.099 18.7627L101.195 18.1493ZM98.4269 29H96.8189V31H98.4269V29ZM105.442 19.776L106.197 20.4319L106.203 20.4258L105.442 19.776ZM111.874 19.56L111.119 20.2155L111.126 20.2231L111.133 20.2305L111.874 19.56ZM113.002 22.92L114.001 22.9644L114.002 22.9422V22.92H113.002ZM112.954 24L113.95 24.0948L113.952 24.0696L113.953 24.0444L112.954 24ZM112.906 24.504V25.504H113.816L113.902 24.5988L112.906 24.504ZM105.658 24.504V23.504H104.649L104.658 24.5137L105.658 24.504ZM106.618 27.936L105.902 28.6342L105.911 28.6431L106.618 27.936ZM110.746 28.656L111.01 29.6208L111.01 29.6208L110.746 28.656ZM112.33 27.936L113.263 27.5745L112.822 26.4378L111.794 27.0923L112.33 27.936ZM112.786 29.112L113.312 29.9628L114.019 29.5258L113.719 28.7505L112.786 29.112ZM110.986 29.88L111.229 30.8501L111.237 30.8481L111.246 30.8458L110.986 29.88ZM111.61 23.448V24.448H112.61V23.448H111.61ZM106.594 20.544L105.801 19.9352L105.801 19.9352L106.594 20.544ZM105.658 23.448L104.661 23.3713L104.579 24.448H105.658V23.448ZM109.138 29.12C107.688 29.12 106.765 28.6956 106.179 27.9957C105.564 27.2619 105.17 26.0527 105.17 24.192H103.17C103.17 26.2833 103.605 28.0381 104.646 29.2803C105.715 30.5564 107.277 31.12 109.138 31.12V29.12ZM105.17 24.192C105.17 22.3439 105.572 21.1516 106.197 20.4319L104.688 19.1201C103.617 20.3524 103.17 22.1041 103.17 24.192H105.17ZM106.203 20.4258C106.842 19.6779 107.689 19.288 108.85 19.288V17.288C107.164 17.288 105.739 17.8901 104.682 19.1262L106.203 20.4258ZM108.85 19.288C109.886 19.288 110.601 19.6182 111.119 20.2155L112.63 18.9045C111.676 17.8058 110.375 17.288 108.85 17.288V19.288ZM111.133 20.2305C111.679 20.8352 112.002 21.694 112.002 22.92H114.002C114.002 21.33 113.574 19.9488 112.616 18.8895L111.133 20.2305ZM112.003 22.8756L111.955 23.9556L113.953 24.0444L114.001 22.9644L112.003 22.8756ZM111.959 23.9052L111.911 24.4092L113.902 24.5988L113.95 24.0948L111.959 23.9052ZM112.906 23.504H105.658V25.504H112.906V23.504ZM104.658 24.5137C104.675 26.2243 104.998 27.7061 105.902 28.6341L107.334 27.2379C106.991 26.8859 106.674 26.0797 106.658 24.4943L104.658 24.5137ZM105.911 28.6431C106.747 29.4786 107.821 29.872 109.042 29.872V27.872C108.28 27.872 107.738 27.6414 107.326 27.2289L105.911 28.6431ZM109.042 29.872C109.73 29.872 110.387 29.7906 111.01 29.6208L110.483 27.6912C110.05 27.8094 109.571 27.872 109.042 27.872V29.872ZM111.01 29.6208C111.647 29.4469 112.267 29.162 112.867 28.7797L111.794 27.0923C111.338 27.382 110.902 27.5771 110.483 27.6912L111.01 29.6208ZM111.398 28.2975L111.854 29.4735L113.719 28.7505L113.263 27.5745L111.398 28.2975ZM112.261 28.2612C111.805 28.543 111.295 28.7618 110.727 28.9142L111.246 30.8458C111.99 30.6462 112.68 30.353 113.312 29.9628L112.261 28.2612ZM110.744 28.9099C110.174 29.0523 109.64 29.12 109.138 29.12V31.12C109.821 31.12 110.519 31.0277 111.229 30.8501L110.744 28.9099ZM112.61 23.448V22.872H110.61V23.448H112.61ZM112.61 22.872C112.61 21.6887 112.322 20.6266 111.641 19.7919L110.092 21.0561C110.403 21.4374 110.61 22.0073 110.61 22.872H112.61ZM111.641 19.7919C110.939 18.9304 109.971 18.512 108.85 18.512V20.512C109.426 20.512 109.802 20.7016 110.092 21.0561L111.641 19.7919ZM108.85 18.512C107.608 18.512 106.544 18.9673 105.801 19.9352L107.388 21.1528C107.701 20.7447 108.141 20.512 108.85 20.512V18.512ZM105.801 19.9352C105.114 20.8311 104.766 22.0114 104.661 23.3713L106.655 23.5247C106.743 22.3886 107.019 21.6329 107.388 21.1528L105.801 19.9352ZM105.658 24.448H111.61V22.448H105.658V24.448ZM115.899 18.456V17.456H114.899V18.456H115.899ZM117.339 18.456L118.338 18.4084L118.293 17.456H117.339V18.456ZM117.387 19.464L116.388 19.5116L116.473 21.2927L117.949 20.2915L117.387 19.464ZM119.115 18.672L118.818 17.7171L118.812 17.7191L119.115 18.672ZM121.107 18.288H122.107V17.234L121.055 17.2894L121.107 18.288ZM121.107 19.536V20.536H122.107V19.536H121.107ZM119.019 19.848L118.736 18.889L118.73 18.8908L119.019 19.848ZM117.411 20.568L116.833 19.752L116.411 20.0509V20.568H117.411ZM117.411 30V31H118.411V30H117.411ZM115.899 30H114.899V31H115.899V30ZM115.899 19.456H117.339V17.456H115.899V19.456ZM116.34 18.5036L116.388 19.5116L118.386 19.4164L118.338 18.4084L116.34 18.5036ZM117.949 20.2915C118.294 20.0571 118.775 19.8296 119.419 19.6249L118.812 17.7191C118.047 17.9624 117.376 18.2629 116.826 18.6365L117.949 20.2915ZM119.412 19.6269C120.071 19.4219 120.652 19.3134 121.16 19.2866L121.055 17.2894C120.347 17.3266 119.6 17.4741 118.818 17.7171L119.412 19.6269ZM120.107 18.288V19.536H122.107V18.288H120.107ZM121.107 18.536C120.317 18.536 119.526 18.6556 118.736 18.889L119.303 20.807C119.921 20.6244 120.521 20.536 121.107 20.536V18.536ZM118.73 18.8908C117.987 19.1153 117.339 19.3939 116.833 19.752L117.989 21.384C118.252 21.1981 118.675 20.9967 119.309 20.8052L118.73 18.8908ZM116.411 20.568V30H118.411V20.568H116.411ZM117.411 29H115.899V31H117.411V29ZM116.899 30V18.456H114.899V30H116.899ZM125.004 29.88L124.751 30.8474L124.764 30.8509L124.777 30.854L125.004 29.88ZM123.108 29.184L122.185 28.7994L121.822 29.6704L122.67 30.0832L123.108 29.184ZM123.588 28.032L124.077 27.1595L123.097 26.6108L122.665 27.6474L123.588 28.032ZM125.1 28.632L124.822 29.5926L124.837 29.5968L124.852 29.6007L125.1 28.632ZM128.628 28.416L129.203 29.2338L129.209 29.2297L128.628 28.416ZM128.916 25.68L128.166 26.3416L128.177 26.3537L128.188 26.3654L128.916 25.68ZM127.764 25.008L128.08 24.0593L128.066 24.0547L128.052 24.0505L127.764 25.008ZM126.012 24.48L125.703 25.431L125.713 25.4344L125.723 25.4375L126.012 24.48ZM124.476 23.832L123.972 24.6958L123.972 24.6958L124.476 23.832ZM123.588 22.92L122.701 23.3814L122.705 23.3889L122.709 23.3963L123.588 22.92ZM130.188 18.96L131.122 19.3176L131.453 18.4534L130.617 18.0566L130.188 18.96ZM129.756 20.088L129.324 20.9901L130.302 21.4577L130.69 20.4456L129.756 20.088ZM128.508 19.68L128.265 20.6501L128.285 20.6551L128.305 20.6593L128.508 19.68ZM125.412 19.992L125.96 20.8285L125.97 20.822L125.98 20.8152L125.412 19.992ZM124.908 22.272L125.74 21.7173L125.74 21.7173L124.908 22.272ZM126.444 23.112L126.138 24.064L126.14 24.0646L126.444 23.112ZM128.172 23.664L128.478 22.7121L128.476 22.7114L128.172 23.664ZM130.164 24.792L129.405 25.4428L129.411 25.4505L129.418 25.458L130.164 24.792ZM129.684 29.328L129.093 28.5215L129.084 28.528L129.684 29.328ZM126.972 29.12C126.433 29.12 125.854 29.0509 125.23 28.906L124.777 30.854C125.53 31.0291 126.262 31.12 126.972 31.12V29.12ZM125.257 28.9126C124.645 28.7523 124.075 28.5425 123.545 28.2848L122.67 30.0832C123.325 30.4015 124.019 30.6557 124.751 30.8474L125.257 28.9126ZM124.031 29.5686L124.511 28.4166L122.665 27.6474L122.185 28.7994L124.031 29.5686ZM123.099 28.9045C123.586 29.1769 124.166 29.4027 124.822 29.5926L125.378 27.6714C124.818 27.5093 124.39 27.3351 124.077 27.1595L123.099 28.9045ZM124.852 29.6007C125.547 29.7791 126.231 29.872 126.9 29.872V27.872C126.417 27.872 125.901 27.8049 125.348 27.6633L124.852 29.6007ZM126.9 29.872C127.753 29.872 128.552 29.6925 129.203 29.2338L128.052 27.5982C127.84 27.7475 127.487 27.872 126.9 27.872V29.872ZM129.209 29.2297C129.986 28.6751 130.3 27.8247 130.3 26.904H128.3C128.3 27.3593 128.166 27.5169 128.047 27.6023L129.209 29.2297ZM130.3 26.904C130.3 26.2204 130.14 25.5218 129.644 24.9946L128.188 26.3654C128.204 26.3822 128.3 26.4996 128.3 26.904H130.3ZM129.666 25.0184C129.263 24.5616 128.693 24.2637 128.08 24.0593L127.448 25.9567C127.89 26.1043 128.089 26.2544 128.166 26.3416L129.666 25.0184ZM128.052 24.0505L126.3 23.5225L125.723 25.4375L127.475 25.9655L128.052 24.0505ZM126.321 23.529C125.718 23.333 125.279 23.143 124.98 22.9682L123.972 24.6958C124.441 24.969 125.026 25.211 125.703 25.431L126.321 23.529ZM124.98 22.9682C124.751 22.8348 124.586 22.6636 124.467 22.4437L122.709 23.3963C123.006 23.9444 123.433 24.3812 123.972 24.6958L124.98 22.9682ZM124.475 22.4586C124.364 22.2452 124.276 21.9058 124.276 21.384H122.276C122.276 22.1102 122.396 22.7948 122.701 23.3814L124.475 22.4586ZM124.276 21.384C124.276 20.6022 124.528 20.1604 124.935 19.871L123.776 18.241C122.743 18.9756 122.276 20.0858 122.276 21.384H124.276ZM124.935 19.871C125.45 19.5048 126.139 19.288 127.068 19.288V17.288C125.821 17.288 124.701 17.5832 123.776 18.241L124.935 19.871ZM127.068 19.288C128.069 19.288 128.961 19.4844 129.759 19.8634L130.617 18.0566C129.527 17.5396 128.339 17.288 127.068 17.288V19.288ZM129.254 18.6024L128.822 19.7304L130.69 20.4456L131.122 19.3176L129.254 18.6024ZM130.187 19.1859C129.736 18.9699 129.241 18.8105 128.711 18.7007L128.305 20.6593C128.703 20.7415 129.04 20.8541 129.324 20.9901L130.187 19.1859ZM128.75 18.7099C128.229 18.5794 127.707 18.512 127.188 18.512V20.512C127.533 20.512 127.891 20.5566 128.265 20.6501L128.75 18.7099ZM127.188 18.512C126.321 18.512 125.516 18.7054 124.844 19.1688L125.98 20.8152C126.236 20.6386 126.615 20.512 127.188 20.512V18.512ZM124.864 19.1555C124.056 19.6851 123.716 20.5287 123.716 21.456H125.716C125.716 21.0393 125.84 20.9069 125.96 20.8285L124.864 19.1555ZM123.716 21.456C123.716 21.9087 123.795 22.4051 124.076 22.8267L125.74 21.7173C125.754 21.739 125.748 21.7386 125.737 21.695C125.727 21.6505 125.716 21.5738 125.716 21.456H123.716ZM124.076 22.8267C124.309 23.1757 124.623 23.4394 124.989 23.6224L125.883 21.8336C125.801 21.7926 125.763 21.7523 125.74 21.7173L124.076 22.8267ZM124.989 23.6224C125.282 23.769 125.676 23.9155 126.138 24.064L126.75 22.16C126.316 22.0205 126.038 21.911 125.883 21.8336L124.989 23.6224ZM126.14 24.0646L127.868 24.6166L128.476 22.7114L126.748 22.1594L126.14 24.0646ZM127.865 24.6159C128.74 24.8975 129.197 25.2008 129.405 25.4428L130.923 24.1412C130.363 23.4872 129.492 23.0385 128.478 22.7121L127.865 24.6159ZM129.418 25.458C129.588 25.648 129.764 26.0425 129.764 26.832H131.764C131.764 25.7975 131.54 24.832 130.91 24.126L129.418 25.458ZM129.764 26.832C129.764 27.7455 129.487 28.2323 129.093 28.5216L130.275 30.1344C131.321 29.3677 131.764 28.1905 131.764 26.832H129.764ZM129.084 28.528C128.593 28.8963 127.915 29.12 126.972 29.12V31.12C128.236 31.12 129.367 30.8157 130.284 30.128L129.084 28.528ZM134.2 19.776L134.955 20.4319L134.96 20.4258L134.2 19.776ZM140.632 19.56L139.877 20.2155L139.884 20.2231L139.89 20.2305L140.632 19.56ZM141.76 22.92L142.759 22.9644L142.76 22.9422V22.92H141.76ZM141.712 24L142.708 24.0948L142.71 24.0696L142.711 24.0444L141.712 24ZM141.664 24.504V25.504H142.574L142.66 24.5988L141.664 24.504ZM134.416 24.504V23.504H133.406L133.416 24.5137L134.416 24.504ZM135.376 27.936L134.66 28.6342L134.669 28.6431L135.376 27.936ZM139.504 28.656L139.767 29.6208L139.767 29.6208L139.504 28.656ZM141.088 27.936L142.021 27.5745L141.58 26.4378L140.551 27.0923L141.088 27.936ZM141.544 29.112L142.07 29.9628L142.777 29.5258L142.477 28.7505L141.544 29.112ZM139.744 29.88L139.987 30.8501L139.995 30.8481L140.003 30.8458L139.744 29.88ZM140.368 23.448V24.448H141.368V23.448H140.368ZM135.352 20.544L134.559 19.9352L134.559 19.9352L135.352 20.544ZM134.416 23.448L133.419 23.3713L133.336 24.448H134.416V23.448ZM137.896 29.12C136.445 29.12 135.523 28.6956 134.937 27.9957C134.322 27.2619 133.928 26.0527 133.928 24.192H131.928C131.928 26.2833 132.363 28.0381 133.404 29.2803C134.473 30.5564 136.035 31.12 137.896 31.12V29.12ZM133.928 24.192C133.928 22.3439 134.33 21.1516 134.955 20.4319L133.445 19.1201C132.375 20.3524 131.928 22.1041 131.928 24.192H133.928ZM134.96 20.4258C135.6 19.6779 136.447 19.288 137.608 19.288V17.288C135.922 17.288 134.497 17.8901 133.44 19.1262L134.96 20.4258ZM137.608 19.288C138.644 19.288 139.359 19.6182 139.877 20.2155L141.387 18.9045C140.434 17.8058 139.133 17.288 137.608 17.288V19.288ZM139.89 20.2305C140.437 20.8352 140.76 21.694 140.76 22.92H142.76C142.76 21.33 142.332 19.9488 141.374 18.8895L139.89 20.2305ZM140.761 22.8756L140.713 23.9556L142.711 24.0444L142.759 22.9644L140.761 22.8756ZM140.717 23.9052L140.669 24.4092L142.66 24.5988L142.708 24.0948L140.717 23.9052ZM141.664 23.504H134.416V25.504H141.664V23.504ZM133.416 24.5137C133.433 26.2243 133.755 27.7061 134.66 28.6341L136.092 27.2379C135.749 26.8859 135.432 26.0797 135.416 24.4943L133.416 24.5137ZM134.669 28.6431C135.505 29.4786 136.579 29.872 137.8 29.872V27.872C137.038 27.872 136.496 27.6414 136.083 27.2289L134.669 28.6431ZM137.8 29.872C138.487 29.872 139.145 29.7906 139.767 29.6208L139.241 27.6912C138.808 27.8094 138.329 27.872 137.8 27.872V29.872ZM139.767 29.6208C140.405 29.4469 141.024 29.162 141.625 28.7797L140.551 27.0923C140.096 27.382 139.66 27.5771 139.241 27.6912L139.767 29.6208ZM140.156 28.2975L140.612 29.4735L142.477 28.7505L142.021 27.5745L140.156 28.2975ZM141.019 28.2612C140.562 28.543 140.053 28.7618 139.485 28.9142L140.003 30.8458C140.747 30.6462 141.438 30.353 142.07 29.9628L141.019 28.2612ZM139.502 28.9099C138.932 29.0523 138.398 29.12 137.896 29.12V31.12C138.579 31.12 139.276 31.0277 139.987 30.8501L139.502 28.9099ZM141.368 23.448V22.872H139.368V23.448H141.368ZM141.368 22.872C141.368 21.6887 141.08 20.6266 140.399 19.7919L138.849 21.0561C139.16 21.4374 139.368 22.0073 139.368 22.872H141.368ZM140.399 19.7919C139.696 18.9304 138.729 18.512 137.608 18.512V20.512C138.184 20.512 138.56 20.7016 138.849 21.0561L140.399 19.7919ZM137.608 18.512C136.366 18.512 135.302 18.9673 134.559 19.9352L136.146 21.1528C136.459 20.7447 136.899 20.512 137.608 20.512V18.512ZM134.559 19.9352C133.871 20.8311 133.524 22.0114 133.419 23.3713L135.413 23.5247C135.501 22.3886 135.777 21.6329 136.146 21.1528L134.559 19.9352ZM134.416 24.448H140.368V22.448H134.416V24.448ZM153.132 29.28L152.491 30.0483L152.5 30.0556L153.132 29.28ZM153.468 24.336L152.877 23.5291L152.877 23.5291L153.468 24.336ZM158.868 23.352V24.352H159.868V23.352H158.868ZM158.196 20.304L157.422 20.9372L157.432 20.95L157.443 20.9625L158.196 20.304ZM155.052 19.656L155.234 20.6393L155.251 20.636L155.268 20.6322L155.052 19.656ZM153.084 20.112L152.113 20.3545L152.357 21.3288L153.33 21.0811L153.084 20.112ZM152.796 18.96L152.479 18.0113L151.601 18.3042L151.825 19.2025L152.796 18.96ZM159.276 19.368L158.561 20.0671L158.568 20.0752L158.576 20.083L159.276 19.368ZM160.356 30V31H161.356V30H160.356ZM159.276 30L158.321 30.2983L158.54 31H159.276V30ZM159.036 29.232L159.99 28.9337L159.56 27.5573L158.422 28.4426L159.036 29.232ZM157.668 29.856L157.939 30.8184L157.95 30.8152L157.962 30.8118L157.668 29.856ZM157.596 28.704L157.859 29.6688L157.872 29.6651L157.886 29.661L157.596 28.704ZM158.868 28.152L159.413 28.9904L159.868 28.6947V28.152H158.868ZM158.868 24.456H159.868V23.456H158.868V24.456ZM154.884 24.912L154.562 23.965L154.562 23.965L154.884 24.912ZM154.188 28.368L154.836 27.6068L154.836 27.6068L154.188 28.368ZM155.844 29.12C154.892 29.12 154.23 28.8846 153.763 28.5044L152.5 30.0556C153.409 30.7954 154.555 31.12 155.844 31.12V29.12ZM153.772 28.5118C153.375 28.1812 153.124 27.6829 153.124 26.856H151.124C151.124 28.1411 151.544 29.2588 152.491 30.0482L153.772 28.5118ZM153.124 26.856C153.124 26.1809 153.394 25.629 154.058 25.1429L152.877 23.5291C151.749 24.355 151.124 25.4831 151.124 26.856H153.124ZM154.058 25.1429C154.691 24.6799 155.887 24.352 157.86 24.352V22.352C155.769 22.352 154.036 22.6801 152.877 23.5291L154.058 25.1429ZM157.86 24.352H158.868V22.352H157.86V24.352ZM159.868 23.352V22.992H157.868V23.352H159.868ZM159.868 22.992C159.868 21.6572 159.646 20.4435 158.948 19.6455L157.443 20.9625C157.641 21.1885 157.868 21.7668 157.868 22.992H159.868ZM158.97 19.6708C158.314 18.8694 157.39 18.512 156.348 18.512V20.512C156.905 20.512 157.213 20.6826 157.422 20.9372L158.97 19.6708ZM156.348 18.512C155.841 18.512 155.336 18.5684 154.835 18.6798L155.268 20.6322C155.631 20.5516 155.99 20.512 156.348 20.512V18.512ZM154.869 18.6727C154.403 18.759 153.721 18.9179 152.837 19.1429L153.33 21.0811C154.206 20.8581 154.836 20.713 155.234 20.6393L154.869 18.6727ZM154.054 19.8695L153.766 18.7175L151.825 19.2025L152.113 20.3545L154.054 19.8695ZM153.112 19.9087C154.386 19.4838 155.477 19.288 156.396 19.288V17.288C155.202 17.288 153.893 17.5402 152.479 18.0113L153.112 19.9087ZM156.396 19.288C157.402 19.288 158.083 19.5785 158.561 20.0671L159.991 18.6689C159.06 17.7175 157.821 17.288 156.396 17.288V19.288ZM158.576 20.083C159.02 20.5166 159.356 21.3307 159.356 22.776H161.356C161.356 21.0853 160.971 19.6274 159.975 18.653L158.576 20.083ZM159.356 22.776V30H161.356V22.776H159.356ZM160.356 29H159.276V31H160.356V29ZM160.23 29.7017L159.99 28.9337L158.081 29.5303L158.321 30.2983L160.23 29.7017ZM158.422 28.4426C158.277 28.5552 157.958 28.7203 157.373 28.9002L157.962 30.8118C158.625 30.6077 159.218 30.3568 159.65 30.0214L158.422 28.4426ZM157.396 28.8936C156.852 29.047 156.336 29.12 155.844 29.12V31.12C156.536 31.12 157.235 31.017 157.939 30.8184L157.396 28.8936ZM156.06 29.92C156.653 29.92 157.254 29.8338 157.859 29.6688L157.332 27.7392C156.881 27.8622 156.458 27.92 156.06 27.92V29.92ZM157.886 29.661C158.467 29.4847 158.987 29.267 159.413 28.9904L158.323 27.3136C158.108 27.453 157.78 27.6033 157.306 27.747L157.886 29.661ZM159.868 28.152V24.456H157.868V28.152H159.868ZM158.868 23.456H158.22V25.456H158.868V23.456ZM158.22 23.456C156.823 23.456 155.594 23.6149 154.562 23.965L155.205 25.859C155.965 25.6011 156.96 25.456 158.22 25.456V23.456ZM154.562 23.965C153.97 24.166 153.443 24.4968 153.071 25.0028C152.695 25.5119 152.54 26.1119 152.54 26.736H154.54C154.54 26.4481 154.608 26.2881 154.681 26.1892C154.756 26.0872 154.901 25.962 155.205 25.859L154.562 23.965ZM152.54 26.736C152.54 27.664 152.827 28.5223 153.539 29.1292L154.836 27.6068C154.685 27.4777 154.54 27.248 154.54 26.736H152.54ZM153.539 29.1292C154.217 29.7067 155.108 29.92 156.06 29.92V27.92C155.379 27.92 155.022 27.7653 154.836 27.6068L153.539 29.1292ZM165.632 15.96L164.954 16.6948L164.969 16.7094L164.986 16.7234L165.632 15.96ZM165.632 14.424L166.31 15.1588L166.325 15.1452L166.339 15.1311L165.632 14.424ZM167.144 14.4L166.437 15.1071L166.466 15.1365L166.498 15.1634L167.144 14.4ZM167.144 15.96L167.82 16.6972L167.822 16.6948L167.144 15.96ZM163.4 30H162.4V31H163.4V30ZM163.4 28.944V27.944H162.4V28.944H163.4ZM165.632 28.944V29.944H166.632V28.944H165.632ZM165.632 19.512H166.632V18.512H165.632V19.512ZM163.4 19.512H162.4V20.512H163.4V19.512ZM163.4 18.456V17.456H162.4V18.456H163.4ZM167.144 18.456H168.144V17.456H167.144V18.456ZM167.144 28.944H166.144V29.944H167.144V28.944ZM169.4 28.944H170.4V27.944H169.4V28.944ZM169.4 30V31H170.4V30H169.4ZM166.4 15.224C166.303 15.224 166.284 15.202 166.278 15.1966L164.986 16.7234C165.396 17.07 165.889 17.224 166.4 17.224V15.224ZM166.31 15.2252C166.309 15.2245 166.312 15.2269 166.316 15.2325C166.32 15.2382 166.323 15.2437 166.324 15.2476C166.326 15.2513 166.325 15.2503 166.323 15.2423C166.322 15.2341 166.32 15.2179 166.32 15.192H164.32C164.32 15.7509 164.513 16.2878 164.954 16.6948L166.31 15.2252ZM166.32 15.192C166.32 15.1661 166.322 15.1499 166.323 15.1417C166.325 15.1337 166.326 15.1327 166.324 15.1364C166.323 15.1403 166.32 15.1458 166.316 15.1515C166.312 15.1571 166.309 15.1595 166.31 15.1588L164.954 13.6892C164.513 14.0962 164.32 14.6331 164.32 15.192H166.32ZM166.339 15.1311C166.348 15.1224 166.353 15.1185 166.355 15.1173C166.356 15.1167 166.356 15.1164 166.356 15.1164C166.356 15.1164 166.356 15.1164 166.356 15.1164C166.356 15.1165 166.356 15.1165 166.356 15.1165C166.356 15.1165 166.356 15.1164 166.356 15.1164C166.357 15.1163 166.357 15.1162 166.358 15.116C166.358 15.1157 166.36 15.1152 166.363 15.1147C166.369 15.1136 166.381 15.112 166.4 15.112V13.112C165.841 13.112 165.327 13.3145 164.925 13.7169L166.339 15.1311ZM166.4 15.112C166.423 15.112 166.438 15.1138 166.446 15.1152C166.454 15.1165 166.455 15.1175 166.453 15.1166C166.45 15.1155 166.446 15.1136 166.442 15.1107C166.437 15.1079 166.436 15.1061 166.437 15.1071L167.851 13.6929C167.448 13.2902 166.934 13.112 166.4 13.112V15.112ZM166.498 15.1634C166.489 15.1562 166.479 15.1457 166.47 15.1325C166.46 15.1193 166.454 15.1077 166.451 15.1004C166.446 15.086 166.456 15.1019 166.456 15.168H168.456C168.456 14.6126 168.274 14.0461 167.79 13.6366L166.498 15.1634ZM166.456 15.168C166.456 15.2332 166.446 15.2556 166.447 15.2515C166.448 15.2496 166.451 15.2444 166.455 15.2378C166.46 15.2312 166.464 15.2269 166.466 15.2252L167.822 16.6948C168.273 16.2781 168.456 15.7263 168.456 15.168H166.456ZM166.468 15.2228C166.469 15.2221 166.471 15.2201 166.475 15.218C166.478 15.2159 166.48 15.2153 166.479 15.2156C166.478 15.2161 166.455 15.224 166.4 15.224V17.224C166.909 17.224 167.413 17.0701 167.82 16.6972L166.468 15.2228ZM164.4 30V28.944H162.4V30H164.4ZM163.4 29.944H165.632V27.944H163.4V29.944ZM166.632 28.944V19.512H164.632V28.944H166.632ZM165.632 18.512H163.4V20.512H165.632V18.512ZM164.4 19.512V18.456H162.4V19.512H164.4ZM163.4 19.456H167.144V17.456H163.4V19.456ZM166.144 18.456V28.944H168.144V18.456H166.144ZM167.144 29.944H169.4V27.944H167.144V29.944ZM168.4 28.944V30H170.4V28.944H168.4ZM169.4 29H163.4V31H169.4V29Z" fill="black"/>
</svg>
